<svg xmlns="http://www.w3.org/2000/svg" viewBox="0 0 1965 785" width="1965" height="785" role="img" aria-label="Zwei Personen begleiten einen automatisierten Ablauf von der Anfrage bis zum Ziel">
  <rect width="1965" height="785" fill="#FFFFFF"/>

  <!-- ===================== Hintergrund ===================== -->
  <g fill="#EDEDED">
    <rect x="228" y="135" width="196" height="28" rx="14"/>
    <circle cx="272" cy="132" r="38"/>
    <circle cx="330" cy="112" r="48"/>
    <circle cx="390" cy="134" r="32"/>

    <rect x="100" y="140" width="150" height="25" rx="12"/>
    <circle cx="140" cy="138" r="31"/>
    <circle cx="190" cy="126" r="39"/>
    <circle cx="232" cy="140" r="26"/>

    <rect x="1232" y="118" width="268" height="26" rx="13"/>
    <circle cx="1290" cy="115" r="40"/>
    <circle cx="1360" cy="96" r="51"/>
    <circle cx="1435" cy="113" r="35"/>

    <rect x="1168" y="232" width="122" height="20" rx="10"/>
    <circle cx="1198" cy="230" r="25"/>
    <circle cx="1238" cy="219" r="32"/>
    <circle cx="1272" cy="232" r="21"/>
  </g>

  <g fill="#C9C9C9">
    <g>
      <circle cx="477" cy="517" r="4"/><circle cx="495" cy="517" r="4"/><circle cx="513" cy="517" r="4"/><circle cx="531" cy="517" r="4"/>
      <circle cx="477" cy="535" r="4"/><circle cx="495" cy="535" r="4"/><circle cx="513" cy="535" r="4"/><circle cx="531" cy="535" r="4"/>
      <circle cx="477" cy="553" r="4"/><circle cx="495" cy="553" r="4"/><circle cx="513" cy="553" r="4"/><circle cx="531" cy="553" r="4"/>
      <circle cx="477" cy="571" r="4"/><circle cx="495" cy="571" r="4"/><circle cx="513" cy="571" r="4"/><circle cx="531" cy="571" r="4"/>
      <circle cx="477" cy="589" r="4"/><circle cx="495" cy="589" r="4"/><circle cx="513" cy="589" r="4"/><circle cx="531" cy="589" r="4"/>
    </g>
    <g>
      <circle cx="1467" cy="230" r="4"/><circle cx="1485" cy="230" r="4"/><circle cx="1503" cy="230" r="4"/><circle cx="1521" cy="230" r="4"/>
      <circle cx="1467" cy="248" r="4"/><circle cx="1485" cy="248" r="4"/><circle cx="1503" cy="248" r="4"/><circle cx="1521" cy="248" r="4"/>
      <circle cx="1467" cy="266" r="4"/><circle cx="1485" cy="266" r="4"/><circle cx="1503" cy="266" r="4"/><circle cx="1521" cy="266" r="4"/>
      <circle cx="1467" cy="284" r="4"/><circle cx="1485" cy="284" r="4"/><circle cx="1503" cy="284" r="4"/><circle cx="1521" cy="284" r="4"/>
    </g>
  </g>

  <g stroke="#BDBDBD" stroke-width="4" stroke-linecap="round">
    <path d="M777 240h20M787 230v20"/>
    <path d="M1117 537h20M1127 527v20"/>
    <path d="M1365 617h20M1375 607v20"/>
  </g>

  <circle cx="578" cy="258" r="17" fill="none" stroke="#4285F4" stroke-width="4"/>
  <circle cx="408" cy="630" r="17" fill="none" stroke="#FBC02D" stroke-width="4"/>
  <circle cx="1580" cy="636" r="17" fill="none" stroke="#F4514E" stroke-width="4"/>
  <path d="M792 606 815 646 769 646Z" fill="#FBC02D"/>

  <!-- Boden -->
  <path d="M118 714h1730" stroke="#E6E6E6" stroke-width="4" stroke-linecap="round"/>

  <!-- ===================== Zielscheibe ===================== -->
  <g stroke="#2B2B2B" stroke-width="3">
    <circle cx="1735" cy="205" r="86" fill="#F7F7F7"/>
    <circle cx="1735" cy="205" r="63" fill="#FFFFFF"/>
    <circle cx="1735" cy="205" r="41" fill="#EFEFEF"/>
  </g>
  <circle cx="1735" cy="205" r="19" fill="#F4514E"/>
  <g fill="none" stroke="#2B2B2B" stroke-width="3" stroke-linecap="round">
    <path d="M1744 176 1814 98"/>
    <path d="M1756 190 1840 116"/>
    <path d="M1770 202 1858 150"/>
  </g>
  <g fill="#FFFFFF" stroke="#2B2B2B" stroke-width="3" stroke-linejoin="round">
    <path d="M1814 98 1798 92 1810 76 1826 82Z"/>
    <path d="M1840 116 1824 110 1836 94 1852 100Z"/>
    <path d="M1858 150 1841 146 1850 128 1867 133Z"/>
  </g>
  <g fill="none" stroke="#2B2B2B" stroke-width="3" stroke-linecap="round">
    <path d="M1772 78 1778 62M1790 70 1800 56M1808 66 1814 52"/>
  </g>

  <!-- Kreisdiagramm -->
  <circle cx="1408" cy="283" r="42" fill="#FFFFFF" stroke="#2B2B2B" stroke-width="3"/>
  <path d="M1408 283V241a42 42 0 0 1 42 42Z" fill="#FBC02D"/>

  <!-- ===================== Ablauflinie ===================== -->
  <g fill="none" stroke="#2B2B2B" stroke-width="3" stroke-linecap="round" stroke-linejoin="round">
    <path d="M487 412h95"/>
    <path d="M547 402l11 10-11 10M566 402l11 10-11 10"/>
    <path d="M738 422h131"/>
    <path d="M1061 425h124"/>
    <path d="M1325 425h117"/>
    <path d="M1416 415l11 10-11 10"/>
  </g>
  <g fill="#FFFFFF" stroke="#2B2B2B" stroke-width="3">
    <circle cx="487" cy="412" r="8"/>
    <circle cx="800" cy="422" r="8"/>
    <circle cx="860" cy="422" r="8"/>
    <circle cx="1069" cy="425" r="6"/>
    <circle cx="1120" cy="425" r="8"/>
    <circle cx="1178" cy="425" r="6"/>
    <circle cx="1387" cy="425" r="8"/>
    <circle cx="1255" cy="355" r="8"/>
    <circle cx="1255" cy="495" r="8"/>
    <circle cx="1583" cy="368" r="8"/>
  </g>

  <!-- Gestrichelte Nebenstrecke mit Freigabe -->
  <g fill="none" stroke="#2B2B2B" stroke-width="3" stroke-linecap="round" stroke-dasharray="2 11">
    <path d="M802 438c10 122 148 202 264 202"/>
    <path d="M1134 638c78-4 116-72 121-135"/>
  </g>
  <circle cx="1100" cy="640" r="32" fill="#4285F4"/>
  <path d="M1085 640l11 12 21-25" fill="none" stroke="#FFFFFF" stroke-width="7" stroke-linecap="round" stroke-linejoin="round"/>

  <!-- Pfeil zum Ziel -->
  <g fill="none" stroke="#2B2B2B" stroke-width="3" stroke-linecap="round" stroke-linejoin="round">
    <path d="M1592 358c34-30 52-58 74-84"/>
    <path d="M1650 276l18-4-2 19"/>
  </g>

  <!-- ===================== Station 1: Anfrage ===================== -->
  <circle cx="400" cy="412" r="78" fill="#FFFFFF" stroke="#2B2B2B" stroke-width="3"/>
  <circle cx="400" cy="412" r="63" fill="#F0F0F0"/>
  <path d="M372 370h40l20 20v62h-60Z" fill="#E4E4E4" stroke="#2B2B2B" stroke-width="2.5" stroke-linejoin="round"/>
  <path d="M412 370v20h20" fill="none" stroke="#2B2B2B" stroke-width="2.5" stroke-linejoin="round"/>
  <g fill="#9E9E9E">
    <rect x="382" y="404" width="40" height="4" rx="2"/>
    <rect x="382" y="415" width="40" height="4" rx="2"/>
    <rect x="382" y="426" width="40" height="4" rx="2"/>
    <rect x="382" y="437" width="26" height="4" rx="2"/>
  </g>

  <!-- ===================== Station 2: Regel ===================== -->
  <circle cx="660" cy="422" r="78" fill="#FFFFFF" stroke="#2B2B2B" stroke-width="3"/>
  <g transform="translate(660 422)" fill="#FBC02D">
    <circle r="35"/>
    <g>
      <rect x="-9" y="-49" width="18" height="22" rx="4"/>
      <rect x="-9" y="-49" width="18" height="22" rx="4" transform="rotate(45)"/>
      <rect x="-9" y="-49" width="18" height="22" rx="4" transform="rotate(90)"/>
      <rect x="-9" y="-49" width="18" height="22" rx="4" transform="rotate(135)"/>
      <rect x="-9" y="-49" width="18" height="22" rx="4" transform="rotate(180)"/>
      <rect x="-9" y="-49" width="18" height="22" rx="4" transform="rotate(225)"/>
      <rect x="-9" y="-49" width="18" height="22" rx="4" transform="rotate(270)"/>
      <rect x="-9" y="-49" width="18" height="22" rx="4" transform="rotate(315)"/>
    </g>
  </g>
  <circle cx="660" cy="422" r="14" fill="#FFFFFF"/>
  <g fill="none" stroke="#2B2B2B" stroke-width="2.5" stroke-linecap="round" stroke-linejoin="round">
    <path d="M700 342 674 390"/>
    <path d="M672 374l4 18-18 2"/>
  </g>
  <circle cx="708" cy="320" r="24" fill="#F4514E"/>
  <path d="M697 320l8 8 15-17" fill="none" stroke="#FFFFFF" stroke-width="5" stroke-linecap="round" stroke-linejoin="round"/>

  <!-- ===================== Station 3: Assistent ===================== -->
  <circle cx="965" cy="420" r="96" fill="#FAFAFA" stroke="#2B2B2B" stroke-width="3"/>
  <path d="M965 378v-26" fill="none" stroke="#2B2B2B" stroke-width="3" stroke-linecap="round"/>
  <circle cx="965" cy="344" r="11" fill="#FBC02D"/>
  <g fill="none" stroke="#2B2B2B" stroke-width="3" stroke-linecap="round">
    <path d="M921 470c-12 2-18 8-18 16"/>
    <path d="M1009 470c12 2 18 8 18 16"/>
  </g>
  <g fill="#FFFFFF" stroke="#2B2B2B" stroke-width="3">
    <rect x="903" y="392" width="16" height="30" rx="7"/>
    <rect x="1011" y="392" width="16" height="30" rx="7"/>
    <rect x="917" y="378" width="96" height="72" rx="18"/>
    <rect x="951" y="448" width="28" height="14" rx="4"/>
    <rect x="921" y="460" width="88" height="48" rx="16"/>
  </g>
  <rect x="934" y="398" width="62" height="34" rx="17" fill="#16213E"/>
  <circle cx="950" cy="415" r="8" fill="#4285F4"/>
  <circle cx="980" cy="415" r="8" fill="#4285F4"/>

  <!-- ===================== Station 4: Freigabe ===================== -->
  <circle cx="1255" cy="425" r="70" fill="#FFFFFF" stroke="#2B2B2B" stroke-width="3"/>
  <circle cx="1255" cy="425" r="43" fill="#FBC02D"/>
  <path d="M1234 426l15 16 47-52" fill="none" stroke="#1F1F1F" stroke-width="8" stroke-linecap="round" stroke-linejoin="round"/>

  <!-- ===================== Station 5: Auswertung ===================== -->
  <circle cx="1520" cy="420" r="78" fill="#FFFFFF" stroke="#2B2B2B" stroke-width="3"/>
  <circle cx="1520" cy="420" r="63" fill="#F2F2F2"/>
  <g fill="#4285F4">
    <rect x="1489" y="428" width="17" height="30" rx="4"/>
    <rect x="1512" y="404" width="17" height="54" rx="4"/>
    <rect x="1535" y="384" width="17" height="74" rx="4"/>
  </g>
  <rect x="1484" y="462" width="74" height="4" rx="2" fill="#BDBDBD"/>

  <!-- ===================== Person links ===================== -->
  <g>
    <circle cx="184" cy="356" r="17" fill="#4A3B32"/>
    <path d="M207 396h16v20h-16z" fill="#E2AE8B"/>
    <ellipse cx="215" cy="376" rx="24" ry="28" fill="#F2C6A0"/>
    <path d="M239 356c-3-12-11-20-23-21-18-2-29 13-30 35-1 14 2 26 7 35l7-5c-4-8-6-18-5-29 1-15 8-24 19-24 10 0 17 5 20 13Z" fill="#4A3B32"/>
    <path d="M186 480 178 590 180 700h23l5-100 7-42 6 42 5 100h24l3-110-6-110Z" fill="#3D6DF0"/>
    <path d="M178 700h26v5c0 6-4 9-10 9h-25c-4 0-6-2-6-6 0-3 2-5 6-6Z" fill="#EFEFEF" stroke="#D8D8D8" stroke-width="2"/>
    <path d="M206 700h26v5c0 6-4 9-10 9h-25c-4 0-6-2-6-6 0-3 2-5 6-6Z" fill="#FAFAFA" stroke="#D8D8D8" stroke-width="2"/>
    <path d="M215 394c19 0 31 8 33 24l6 62h-72l4-62c2-16 11-24 29-24Z" fill="#FDD03A"/>
    <path d="M191 428c-6 14-2 25 12 30l32 6" fill="none" stroke="#F2C6A0" stroke-width="14" stroke-linecap="round"/>
    <path d="M245 424c8 12 10 23 6 32" fill="none" stroke="#F2C6A0" stroke-width="14" stroke-linecap="round"/>
    <rect x="248" y="410" width="48" height="60" rx="6" fill="#EDEDED" stroke="#D5D5D5" stroke-width="2" transform="rotate(-13 272 440)"/>
  </g>

  <!-- ===================== Person rechts ===================== -->
  <g>
    <path d="M1732 398h16v20h-16z" fill="#D79E74"/>
    <ellipse cx="1740" cy="378" rx="24" ry="28" fill="#E8B48A"/>
    <path d="M1716 372c0-26 11-40 28-40 16 0 27 10 27 24 0 6-2 11-5 15-2-12-9-19-21-20-13-1-22 6-29 21Z" fill="#23262B"/>
    <path d="M1706 492 1700 596 1704 700h24l6-100 6-40 6 40 6 100h24l4-104-6-104Z" fill="#DEDEDE"/>
    <path d="M1704 700h24v6c0 5-3 8-9 8h-25c-4 0-6-2-6-5 0-3 2-5 6-6Z" fill="#1A1A1A"/>
    <path d="M1752 700h24v6c0 5-3 8-9 8h-25c-4 0-6-2-6-5 0-3 2-5 6-6Z" fill="#1A1A1A"/>
    <path d="M1740 406c20 0 32 8 34 24l6 64h-78l4-64c2-16 14-24 34-24Z" fill="#3D6DF0"/>
    <path d="M1716 430c-24 2-48-2-68-14" fill="none" stroke="#E8B48A" stroke-width="14" stroke-linecap="round"/>
    <ellipse cx="1643" cy="414" rx="11" ry="9" fill="#E8B48A" transform="rotate(-16 1643 414)"/>
    <path d="M1774 430c9 12 12 26 10 42" fill="none" stroke="#E8B48A" stroke-width="14" stroke-linecap="round"/>
  </g>
</svg>
